<?xml version="1.0" encoding="UTF-8" standalone="no"?>
<!DOCTYPE svg PUBLIC "-//W3C//DTD SVG 1.1//EN" "http://www.w3.org/Graphics/SVG/1.1/DTD/svg11.dtd">
<svg width="100%" height="100%" viewBox="0 0 83 135" version="1.1" xmlns="http://www.w3.org/2000/svg" xmlns:xlink="http://www.w3.org/1999/xlink" xml:space="preserve" xmlns:serif="http://www.serif.com/" style="fill-rule:evenodd;clip-rule:evenodd;stroke-linejoin:round;stroke-miterlimit:2;">
    <g transform="matrix(1,0,0,1,-219.32,-364.53)">
        <g transform="matrix(1,0,0,1,-17,13.9835)">
            <g transform="matrix(-1,0,0,1,270.566,387.166)">
                <path d="M0,73.047C1.157,73.405 2.059,73.624 2.919,73.755C3.883,73.908 4.808,73.986 5.666,73.988C6.423,73.988 7.159,73.919 7.856,73.782C8.08,73.801 8.314,73.717 8.507,73.54C8.685,73.427 8.818,73.23 8.851,73.013C9.12,72.458 9.378,71.806 9.638,71.022C9.898,70.243 10.137,69.389 10.348,68.483L10.378,68.347C10.565,67.511 10.758,66.646 10.903,65.79C11.053,64.871 11.197,63.977 11.298,63.114C11.346,62.71 11.375,62.297 11.407,61.871C11.444,61.397 11.468,60.948 11.48,60.501C11.492,59.616 11.504,58.71 11.458,57.842C11.355,55.828 11.096,54.373 10.666,53.399L10.427,52.858L10.019,53.285C9.441,53.889 8.881,54.615 8.354,55.444C7.866,56.205 7.42,57.068 6.954,58.159C6.125,60.114 5.571,62.294 5.352,64.464C5.184,66.11 5.325,67.962 5.748,69.682C5.767,69.765 5.786,69.848 5.807,69.933C5.741,69.884 5.674,69.836 5.607,69.787C4.515,69.025 2.833,67.938 0.98,67.06C-1.063,66.09 -3.284,65.146 -5.443,64.327C-6.375,63.971 -7.415,63.619 -8.619,63.255C-9.701,62.933 -10.674,62.714 -11.512,62.606L-12.199,62.516L-11.927,63.153C-11.266,64.698 -9.926,66.499 -8.25,68.093C-7.325,68.97 -6.463,69.682 -5.615,70.266C-5.162,70.584 -4.704,70.887 -4.255,71.16C-3.855,71.401 -3.41,71.638 -2.891,71.892C-1.883,72.38 -0.938,72.758 0,73.047M12.286,86.69C13.121,86.69 13.923,86.648 14.679,86.565C16.633,86.322 18.281,85.862 19.583,85.197C19.817,85.16 20.039,85.01 20.196,84.776C20.354,84.615 20.446,84.372 20.429,84.141C20.775,82.796 20.989,81.112 21.047,79.265C21.091,78.295 21.103,77.327 21.081,76.391C21.055,75.429 21.03,74.463 20.952,73.562C20.877,72.73 20.784,71.766 20.619,70.853C20.458,69.918 20.295,69.006 20.067,68.147C19.899,67.388 19.663,66.587 19.346,65.716C19.112,65.04 18.792,64.394 18.398,63.799L18.068,63.302L17.738,63.798C17.252,64.531 16.812,65.388 16.432,66.345C16.02,67.391 15.707,68.421 15.5,69.41C15.023,71.592 14.873,73.996 15.078,76.178C15.164,77.131 15.335,78.043 15.586,78.89C15.86,79.849 16.179,80.709 16.537,81.443C16.612,81.607 16.691,81.771 16.774,81.934C16.607,81.869 16.437,81.805 16.264,81.741C15.427,81.451 14.542,81.151 13.627,80.899C12.733,80.662 11.785,80.418 10.842,80.253C8.309,79.81 5.805,79.47 3.6,79.267L3.596,79.267C2.437,79.172 1.238,79.074 0.098,79.064C-1.064,79.048 -2.103,79.106 -2.992,79.231L-3.653,79.323L-3.255,79.859C-2.775,80.501 -2.105,81.163 -1.082,82.005C-0.323,82.617 0.627,83.249 1.829,83.938C3.086,84.603 4.125,85.075 5.107,85.428C6.434,85.895 7.424,86.171 8.32,86.323C9.552,86.538 10.58,86.651 11.548,86.679C11.797,86.686 12.043,86.69 12.286,86.69M-10.374,55.283C-9.75,55.857 -9,56.433 -8.021,57.095C-7.609,57.368 -7.204,57.629 -6.784,57.866C-6.36,58.103 -5.938,58.321 -5.521,58.521C-3.943,59.285 -2.303,59.774 -0.893,59.897C-0.826,59.917 -0.756,59.927 -0.686,59.927C-0.551,59.927 -0.41,59.89 -0.275,59.818C-0.1,59.756 0.06,59.612 0.14,59.433C0.865,58.469 1.589,57.175 2.415,55.367C2.593,54.97 2.763,54.568 2.926,54.164L3.021,53.933C3.157,53.603 3.294,53.27 3.42,52.94C3.684,52.261 3.909,51.585 4.133,50.914L4.272,50.5C4.736,49.03 5.13,47.276 5.383,45.552C5.51,44.721 5.562,43.931 5.599,43.201C5.626,42.542 5.576,41.87 5.451,41.201L5.337,40.589L4.832,40.952C4.183,41.419 3.534,42.009 2.905,42.704C2.199,43.49 1.598,44.272 1.119,45.027C0.488,46.017 -0.003,46.909 -0.385,47.754C-0.599,48.229 -0.801,48.713 -0.989,49.203C-1.198,49.741 -1.362,50.228 -1.491,50.689C-1.738,51.556 -1.905,52.39 -1.989,53.168C-2.076,54.015 -2.108,54.824 -2.086,55.579C-2.634,54.908 -3.166,54.311 -3.707,53.761C-4.256,53.193 -4.902,52.539 -5.586,51.96L-6.822,50.91C-7.247,50.555 -7.683,50.201 -8.126,49.851L-8.537,49.527C-9.268,48.951 -10.025,48.355 -10.795,47.804L-10.796,47.804L-11.065,47.61C-11.878,47.029 -12.647,46.48 -13.433,45.995C-14.341,45.429 -15.177,44.974 -15.915,44.644L-16.551,44.358L-16.469,45.051C-16.387,45.748 -16.159,46.55 -15.73,47.651C-15.428,48.45 -14.982,49.338 -14.33,50.443C-13.243,52.258 -11.801,54.022 -10.374,55.283M33.86,87.146C33.72,86.22 33.538,85.257 33.303,84.199C33.095,83.2 32.859,82.235 32.6,81.333C32.39,80.53 32.101,79.645 31.72,78.634C31.556,78.179 31.381,77.725 31.196,77.281L30.632,75.99C30.439,75.557 30.238,75.146 30.031,74.76L29.872,74.464C29.719,74.18 29.571,73.901 29.413,73.647C29.176,73.256 28.925,72.915 28.757,72.693C28.535,72.389 28.301,72.119 28.068,71.897L27.651,71.501L27.43,72.031C27.069,72.896 26.779,73.866 26.567,74.916C26.365,75.956 26.242,77.073 26.2,78.237C26.166,79.327 26.221,80.484 26.372,81.775C26.517,82.914 26.755,84.084 27.083,85.257C27.35,86.149 27.708,87.042 28.148,87.925C28.621,88.818 29.125,89.626 29.65,90.339C29.818,90.558 29.986,90.769 30.155,90.973C29.883,90.943 29.61,90.918 29.339,90.899C28.285,90.803 27.329,90.758 26.449,90.764C25.391,90.741 24.381,90.776 23.459,90.864C22.348,90.949 21.113,91.08 19.692,91.264C18.583,91.394 17.371,91.572 15.879,91.827C14.564,92.048 13.354,92.302 12.283,92.582C11.07,92.89 10.065,93.223 9.22,93.599L8.614,93.868L9.137,94.274C9.513,94.565 9.942,94.855 10.413,95.136C10.828,95.379 11.297,95.615 11.935,95.903C12.461,96.133 13.021,96.374 13.625,96.571C14.197,96.762 14.803,96.94 15.425,97.102C15.993,97.254 16.605,97.384 17.292,97.496C17.918,97.601 18.542,97.686 19.141,97.746C19.814,97.805 20.493,97.834 21.156,97.834C21.661,97.834 22.156,97.817 22.631,97.783C23.771,97.679 24.899,97.499 25.993,97.247C27.068,96.985 28.119,96.649 29.121,96.244C30.899,95.518 32.449,94.574 33.612,93.513C33.836,93.414 34.023,93.202 34.122,92.927C34.239,92.735 34.28,92.469 34.218,92.235C34.299,90.874 34.182,89.208 33.86,87.146M-12.78,19.421C-12.54,20.308 -12.167,21.203 -11.833,21.96C-11.424,22.869 -11.031,23.63 -10.629,24.288C-9.694,25.771 -8.688,26.965 -7.714,27.747C-7.626,27.818 -7.527,27.874 -7.419,27.914C-7.362,27.943 -7.262,27.965 -7.153,27.967C-7.136,27.968 -7.119,27.968 -7.101,27.968C-7.024,27.968 -6.941,27.954 -6.864,27.926C-6.798,27.913 -6.692,27.868 -6.595,27.806C-5.592,27.179 -4.437,26.207 -3.257,24.997C-2.831,24.572 -2.189,23.923 -1.594,23.248C-1.243,22.858 -0.914,22.455 -0.585,22.056C-0.415,21.849 -0.246,21.641 -0.072,21.437C0.401,20.853 0.857,20.216 1.287,19.539L1.499,19.21C1.854,18.659 2.221,18.089 2.526,17.519C2.711,17.181 2.883,16.842 3.038,16.51C3.204,16.194 3.359,15.869 3.494,15.553C3.776,14.888 3.957,14.281 4.03,13.749L4.115,13.129L3.518,13.318C2.84,13.534 2.111,13.852 1.355,14.264C0.982,14.467 0.604,14.692 0.224,14.935C0.034,15.058 -0.157,15.184 -0.349,15.316C-0.541,15.455 -0.721,15.593 -0.905,15.736C-1.625,16.298 -2.349,16.935 -3.055,17.627C-3.782,18.346 -4.416,19.131 -4.939,19.803C-5.171,20.107 -5.397,20.423 -5.611,20.75C-5.822,21.076 -5.997,21.405 -6.189,21.77C-6.388,22.156 -6.575,22.55 -6.75,22.949C-6.821,22.521 -6.908,22.09 -7.006,21.661C-7.064,21.401 -7.133,21.138 -7.202,20.876L-7.294,20.517C-7.387,20.137 -7.492,19.756 -7.608,19.382C-7.822,18.679 -8.086,17.94 -8.341,17.224L-8.584,16.541C-8.917,15.577 -9.285,14.614 -9.676,13.678L-10.25,12.315C-10.443,11.865 -10.64,11.431 -10.842,11.013C-11.269,10.132 -11.697,9.368 -12.117,8.744L-12.542,8.109L-12.814,8.823C-13.051,9.443 -13.242,10.209 -13.38,11.102C-13.447,11.527 -13.5,11.975 -13.54,12.435C-13.563,12.91 -13.569,13.385 -13.565,13.864C-13.546,14.796 -13.508,15.786 -13.358,16.755C-13.207,17.713 -13.012,18.609 -12.78,19.421M1.334,-3.818C1.46,-3.737 1.619,-3.694 1.789,-3.694C1.868,-3.694 1.951,-3.703 2.032,-3.723C3.038,-3.953 4.233,-4.404 5.792,-5.141C6.459,-5.446 7.13,-5.783 7.781,-6.141L8.738,-6.685C9.061,-6.865 9.38,-7.05 9.688,-7.237C10.305,-7.608 10.927,-8.058 11.456,-8.452C12.063,-8.881 12.646,-9.342 13.181,-9.815L13.564,-10.161C13.961,-10.521 14.336,-10.86 14.665,-11.214C15.124,-11.703 15.476,-12.17 15.711,-12.6L16.036,-13.192L15.361,-13.185C14.714,-13.18 13.983,-13.1 13.189,-12.952C12.455,-12.806 11.596,-12.616 10.759,-12.304C9.963,-12.022 9.137,-11.682 8.309,-11.294C7.396,-10.847 6.549,-10.328 5.991,-9.977C5.694,-9.789 5.402,-9.587 5.113,-9.375L5.099,-9.365C4.909,-9.213 4.721,-9.056 4.537,-8.896C4.619,-9.133 4.696,-9.373 4.768,-9.614C4.88,-9.937 4.988,-10.28 5.083,-10.622C5.327,-11.473 5.536,-12.391 5.738,-13.279C5.958,-14.17 6.155,-15.09 6.319,-16.003C6.371,-16.312 6.424,-16.61 6.477,-16.902C6.582,-17.493 6.684,-18.064 6.753,-18.627C6.869,-19.503 6.927,-20.304 6.928,-21.004L6.929,-21.803L6.292,-21.32C5.841,-20.975 5.354,-20.497 4.845,-19.894C4.425,-19.394 3.885,-18.718 3.421,-17.914C2.988,-17.194 2.582,-16.432 2.215,-15.656C1.899,-14.95 1.612,-14.173 1.359,-13.338C1.242,-12.948 1.135,-12.554 1.038,-12.158C0.95,-11.813 0.888,-11.452 0.828,-11.096L0.801,-10.937C0.668,-10.118 0.579,-9.316 0.531,-8.547C0.459,-7.026 0.593,-5.55 0.907,-4.386C0.977,-4.129 1.135,-3.92 1.334,-3.818M9.593,-15.272C9.612,-15.272 9.63,-15.273 9.65,-15.274C10.27,-15.329 11.155,-15.638 12.278,-16.188C12.796,-16.423 13.331,-16.703 13.855,-17.013C14.122,-17.171 14.389,-17.34 14.651,-17.516C14.902,-17.67 15.165,-17.841 15.418,-18.018C16.04,-18.453 16.681,-18.956 17.302,-19.443C17.973,-19.95 18.615,-20.468 19.224,-20.995L19.229,-21C19.432,-21.182 19.633,-21.356 19.833,-21.528C20.231,-21.875 20.616,-22.21 20.975,-22.559C21.542,-23.102 22.029,-23.626 22.42,-24.111L22.896,-24.703L22.139,-24.755C21.646,-24.787 21.047,-24.748 20.366,-24.638C19.807,-24.543 19.07,-24.399 18.302,-24.119C17.612,-23.88 16.915,-23.599 16.239,-23.283C15.636,-22.986 15.01,-22.622 14.371,-22.194C14.075,-21.994 13.784,-21.787 13.498,-21.572C13.246,-21.385 13.001,-21.17 12.761,-20.959L12.661,-20.87C12.118,-20.386 11.612,-19.888 11.155,-19.387C10.263,-18.383 9.537,-17.285 9.105,-16.293C8.984,-16.013 9.001,-15.701 9.151,-15.497C9.254,-15.354 9.417,-15.272 9.593,-15.272M-13.708,37.448C-13.166,38.279 -12.604,39.045 -12.034,39.728C-11.41,40.45 -10.769,41.114 -10.121,41.704C-8.821,42.875 -7.417,43.791 -6.166,44.284L-6.112,44.302C-6.021,44.345 -5.918,44.366 -5.811,44.366C-5.744,44.366 -5.675,44.359 -5.606,44.342C-5.458,44.323 -5.301,44.246 -5.19,44.125L-5.156,44.1C-4.27,43.305 -3.311,42.161 -2.225,40.602C-1.751,39.932 -1.289,39.222 -0.854,38.494C-0.355,37.693 0.053,36.985 0.391,36.339C1.074,35.07 1.757,33.478 2.312,31.86L2.462,31.38C2.652,30.776 2.832,30.206 2.946,29.651C3.023,29.294 3.077,28.951 3.107,28.636C3.135,28.315 3.147,28.015 3.152,27.739L3.163,27.097L2.583,27.376C1.925,27.694 1.262,28.121 0.498,28.723C-0.195,29.269 -0.891,29.908 -1.573,30.623C-2.187,31.284 -2.798,32.044 -3.447,32.95C-3.956,33.672 -4.447,34.489 -4.997,35.524C-5.625,36.77 -6.114,38.238 -6.369,39.625C-7.074,38.112 -7.768,36.851 -8.487,35.774C-8.983,34.998 -9.56,34.187 -10.118,33.404L-10.272,33.189C-10.799,32.437 -11.411,31.622 -12.198,30.624C-12.854,29.765 -13.509,28.976 -14.142,28.28C-14.758,27.603 -15.425,26.948 -16.073,26.391L-16.616,25.923L-16.722,26.632C-16.775,26.99 -16.792,27.388 -16.774,27.846C-16.761,28.261 -16.726,28.705 -16.671,29.162C-16.57,29.95 -16.413,30.986 -16.088,32.043C-15.558,33.937 -14.69,35.91 -13.708,37.448M-7.029,7.204C-6.585,8.831 -6.005,10.213 -5.349,11.208C-5.214,11.408 -5.023,11.552 -4.821,11.607C-4.751,11.63 -4.672,11.641 -4.588,11.641C-4.457,11.641 -4.317,11.612 -4.184,11.556C-3.128,11.121 -1.877,10.394 -0.57,9.451C0.14,8.961 0.752,8.512 1.294,8.082C1.708,7.755 2.104,7.419 2.499,7.084L3.039,6.627C5.119,4.725 7.568,2.009 8.248,0.059L8.463,-0.562L7.813,-0.462C7.143,-0.358 6.405,-0.166 5.619,0.109C4.684,0.443 3.908,0.786 3.242,1.159C2.46,1.584 1.671,2.069 0.898,2.601C0.202,3.103 -0.498,3.674 -1.248,4.352C-1.521,4.601 -1.794,4.86 -2.047,5.136C-2.293,5.418 -2.531,5.704 -2.758,5.995C-2.876,6.147 -2.993,6.301 -3.106,6.457C-3.09,6.263 -3.076,6.068 -3.065,5.874C-3.042,5.5 -3.03,5.121 -3.026,4.74L-3.021,4.497C-3.013,4.206 -3.006,3.916 -3.012,3.628C-3.023,2.659 -3.086,1.635 -3.147,0.761C-3.189,-0.187 -3.265,-1.168 -3.371,-2.144L-3.468,-2.974C-3.545,-3.641 -3.619,-4.284 -3.723,-4.904C-3.872,-5.825 -4.056,-6.641 -4.265,-7.331L-4.49,-8.066L-4.958,-7.456C-6.491,-5.457 -7.728,-1.05 -7.658,2.167C-7.673,2.887 -7.619,3.71 -7.486,4.739C-7.361,5.668 -7.212,6.473 -7.029,7.204" style="fill:url(#_Linear1);fill-rule:nonzero;"/>
            </g>
            <g transform="matrix(0.268345,0.364546,-0.34491,0.253891,348.581,117.92)">
                <g transform="matrix(2.32255,0,0,0.249286,-52.1955,411.342)">
                    <circle cx="192.017" cy="397.117" r="18.017" style="fill:url(#_Radial2);"/>
                </g>
                <g transform="matrix(3.25175,0.82266,-0.0611407,0.241672,-206.337,256.4)">
                    <circle cx="192.017" cy="397.117" r="18.017" style="fill:url(#_Radial3);"/>
                </g>
                <g transform="matrix(1.61024,0.953578,-0.127023,0.214496,135.023,242.054)">
                    <circle cx="192.017" cy="397.117" r="18.017" style="fill:url(#_Radial4);"/>
                </g>
                <g transform="matrix(0.793894,3.15527,-0.241751,0.0608269,337.336,-119.683)">
                    <circle cx="192.017" cy="397.117" r="18.017" style="fill:url(#_Radial5);"/>
                </g>
                <g transform="matrix(-0.438267,2.56407,-0.245723,-0.0420004,575.509,34.6709)">
                    <circle cx="192.017" cy="397.117" r="18.017" style="fill:url(#_Radial6);"/>
                </g>
                <g transform="matrix(1.59576e-16,2.60607,-0.461927,2.82849e-17,577.213,9.927)">
                    <circle cx="192.017" cy="397.117" r="18.017" style="fill:url(#_Radial7);"/>
                </g>
                <g transform="matrix(-3.72488,3.56794,-0.319529,-0.333583,1235.9,-42.297)">
                    <circle cx="192.017" cy="397.117" r="18.017" style="fill:url(#_Radial8);"/>
                </g>
                <g transform="matrix(-3.573,-3.72003,0.378393,-0.363437,929.584,1368.97)">
                    <circle cx="192.017" cy="397.117" r="18.017" style="fill:url(#_Radial9);"/>
                </g>
                <g transform="matrix(-1.02931,-1.07166,1.11576,-1.07166,148.329,1141.69)">
                    <circle cx="192.017" cy="397.117" r="18.017" style="fill:url(#_Radial10);"/>
                </g>
            </g>
        </g>
    </g>
    <defs>
        <linearGradient id="_Linear1" x1="0" y1="0" x2="1" y2="0" gradientUnits="userSpaceOnUse" gradientTransform="matrix(45.4656,109.106,-109.106,45.4656,-13.5661,-15.272)"><stop offset="0" style="stop-color:white;stop-opacity:1"/><stop offset="0.51" style="stop-color:rgb(255,175,78);stop-opacity:1"/><stop offset="1" style="stop-color:rgb(255,102,38);stop-opacity:1"/></linearGradient>
        <radialGradient id="_Radial2" cx="0" cy="0" r="1" gradientUnits="userSpaceOnUse" gradientTransform="matrix(18.017,0,0,18.017,192.017,397.117)"><stop offset="0" style="stop-color:white;stop-opacity:0.5"/><stop offset="0.47" style="stop-color:white;stop-opacity:0.11"/><stop offset="1" style="stop-color:white;stop-opacity:0"/></radialGradient>
        <radialGradient id="_Radial3" cx="0" cy="0" r="1" gradientUnits="userSpaceOnUse" gradientTransform="matrix(18.017,0,0,18.017,192.017,397.117)"><stop offset="0" style="stop-color:white;stop-opacity:0.5"/><stop offset="0.47" style="stop-color:white;stop-opacity:0.11"/><stop offset="1" style="stop-color:white;stop-opacity:0"/></radialGradient>
        <radialGradient id="_Radial4" cx="0" cy="0" r="1" gradientUnits="userSpaceOnUse" gradientTransform="matrix(18.017,0,0,18.017,192.017,397.117)"><stop offset="0" style="stop-color:white;stop-opacity:0.5"/><stop offset="0.47" style="stop-color:white;stop-opacity:0.11"/><stop offset="1" style="stop-color:white;stop-opacity:0"/></radialGradient>
        <radialGradient id="_Radial5" cx="0" cy="0" r="1" gradientUnits="userSpaceOnUse" gradientTransform="matrix(18.017,0,0,18.017,192.017,397.117)"><stop offset="0" style="stop-color:white;stop-opacity:0.5"/><stop offset="0.47" style="stop-color:white;stop-opacity:0.11"/><stop offset="1" style="stop-color:white;stop-opacity:0"/></radialGradient>
        <radialGradient id="_Radial6" cx="0" cy="0" r="1" gradientUnits="userSpaceOnUse" gradientTransform="matrix(18.017,0,0,18.017,192.017,397.117)"><stop offset="0" style="stop-color:white;stop-opacity:0.5"/><stop offset="0.47" style="stop-color:white;stop-opacity:0.11"/><stop offset="1" style="stop-color:white;stop-opacity:0"/></radialGradient>
        <radialGradient id="_Radial7" cx="0" cy="0" r="1" gradientUnits="userSpaceOnUse" gradientTransform="matrix(18.017,0,0,18.017,192.017,397.117)"><stop offset="0" style="stop-color:white;stop-opacity:0.5"/><stop offset="0.47" style="stop-color:white;stop-opacity:0.11"/><stop offset="1" style="stop-color:white;stop-opacity:0"/></radialGradient>
        <radialGradient id="_Radial8" cx="0" cy="0" r="1" gradientUnits="userSpaceOnUse" gradientTransform="matrix(18.017,0,0,18.017,192.017,397.117)"><stop offset="0" style="stop-color:white;stop-opacity:0.5"/><stop offset="0.47" style="stop-color:white;stop-opacity:0.11"/><stop offset="1" style="stop-color:white;stop-opacity:0"/></radialGradient>
        <radialGradient id="_Radial9" cx="0" cy="0" r="1" gradientUnits="userSpaceOnUse" gradientTransform="matrix(18.017,0,0,18.017,192.017,397.117)"><stop offset="0" style="stop-color:white;stop-opacity:0.5"/><stop offset="0.47" style="stop-color:white;stop-opacity:0.11"/><stop offset="1" style="stop-color:white;stop-opacity:0"/></radialGradient>
        <radialGradient id="_Radial10" cx="0" cy="0" r="1" gradientUnits="userSpaceOnUse" gradientTransform="matrix(18.017,0,0,18.017,192.017,397.117)"><stop offset="0" style="stop-color:white;stop-opacity:0.5"/><stop offset="0.47" style="stop-color:white;stop-opacity:0.11"/><stop offset="1" style="stop-color:white;stop-opacity:0"/></radialGradient>
    </defs>
</svg>
